<?xml version="1.0" encoding="UTF-8" standalone="no"?>
<!-- Created with Inkscape (http://www.inkscape.org/) -->

<svg
   width="210mm"
   height="297mm"
   viewBox="0 0 210.00001 297"
   version="1.1"
   id="svg5"
   inkscape:version="1.3.2 (091e20ef0f, 2023-11-25, custom)"
   sodipodi:docname="cover_general_preface.svg"
   xml:space="preserve"
   xmlns:inkscape="http://www.inkscape.org/namespaces/inkscape"
   xmlns:sodipodi="http://sodipodi.sourceforge.net/DTD/sodipodi-0.dtd"
   xmlns="http://www.w3.org/2000/svg"
   xmlns:svg="http://www.w3.org/2000/svg"><sodipodi:namedview
     id="namedview7"
     pagecolor="#ffffff"
     bordercolor="#000000"
     borderopacity="1"
     inkscape:showpageshadow="0"
     inkscape:pageopacity="1"
     inkscape:pagecheckerboard="0"
     inkscape:deskcolor="#ffffff"
     inkscape:document-units="mm"
     showgrid="false"
     inkscape:zoom="0.86032099"
     inkscape:cx="253.39379"
     inkscape:cy="597.45142"
     inkscape:window-width="1920"
     inkscape:window-height="1017"
     inkscape:window-x="0"
     inkscape:window-y="1015"
     inkscape:window-maximized="1"
     inkscape:current-layer="layer3"
     showguides="true"><inkscape:grid
       type="xygrid"
       id="grid132"
       originx="0"
       originy="17.455399"
       spacingy="1"
       spacingx="1"
       units="mm"
       visible="false" /></sodipodi:namedview><defs
     id="defs2"><clipPath
       clipPathUnits="userSpaceOnUse"
       id="clipPath12"><path
         d="M 0,0 H 27.566244 V 31.50001 H 0 Z"
         transform="matrix(0.99999998,0,0,-0.99999998,-8.3502838,0.096022)"
         id="path12-3" /></clipPath><clipPath
       clipPathUnits="userSpaceOnUse"
       id="clipPath13"><path
         d="M 0,0 H 27.566244 V 31.50001 H 0 Z"
         transform="matrix(0.99999998,0,0,-0.99999998,-9.7235758,9.0960218)"
         id="path13-6" /></clipPath><clipPath
       clipPathUnits="userSpaceOnUse"
       id="clipPath14"><path
         d="M 0,0 H 27.566244 V 31.50001 H 0 Z"
         transform="matrix(0.99999998,0,0,-0.99999998,0,31.500009)"
         id="path14-7" /></clipPath><clipPath
       clipPathUnits="userSpaceOnUse"
       id="clipPath15"><path
         d="M 0,0 H 27.566244 V 31.50001 H 0 Z"
         transform="matrix(0.99999998,0,0,-0.99999998,0,31.500009)"
         id="path15-5" /></clipPath><clipPath
       clipPathUnits="userSpaceOnUse"
       id="clipPath16"><path
         d="M 0,0 H 27.566244 V 31.50001 H 0 Z"
         transform="matrix(0.99999998,0,0,-0.99999998,0,31.500009)"
         id="path16-3" /></clipPath><clipPath
       clipPathUnits="userSpaceOnUse"
       id="clipPath17"><path
         d="M 0,0 H 27.566244 V 31.50001 H 0 Z"
         transform="matrix(0.99999998,0,0,-0.99999998,0,31.500009)"
         id="path17-5" /></clipPath><clipPath
       clipPathUnits="userSpaceOnUse"
       id="clipPath18"><path
         d="M 0,0 H 27.566244 V 31.50001 H 0 Z"
         transform="matrix(0.99999998,0,0,-0.99999998,0,31.500009)"
         id="path18-6" /></clipPath><clipPath
       clipPathUnits="userSpaceOnUse"
       id="clipPath19"><path
         d="M 0,0 H 27.566244 V 31.50001 H 0 Z"
         transform="matrix(0.99999998,0,0,-0.99999998,0,31.500009)"
         id="path19-2" /></clipPath><clipPath
       clipPathUnits="userSpaceOnUse"
       id="clipPath20"><path
         d="M 0,0 H 27.566244 V 31.50001 H 0 Z"
         transform="matrix(0.99999998,0,0,-0.99999998,0,31.500009)"
         id="path20-9" /></clipPath><clipPath
       clipPathUnits="userSpaceOnUse"
       id="clipPath21"><path
         d="M 0,0 H 27.566244 V 31.50001 H 0 Z"
         transform="matrix(0.99999998,0,0,-0.99999998,-9.7235758,18.096004)"
         id="path21-1" /></clipPath><clipPath
       clipPathUnits="userSpaceOnUse"
       id="clipPath9"><path
         d="M 0,0 H 27.566244 V 31.50001 H 0 Z"
         transform="matrix(0.99999998,0,0,-0.99999998,-8.3502838,0.096022)"
         id="path9" /></clipPath><clipPath
       clipPathUnits="userSpaceOnUse"
       id="clipPath10"><path
         d="M 0,0 H 27.566244 V 31.50001 H 0 Z"
         transform="matrix(0.99999998,0,0,-0.99999998,-9.7235758,9.0960218)"
         id="path10" /></clipPath><clipPath
       clipPathUnits="userSpaceOnUse"
       id="clipPath11"><path
         d="M 0,0 H 27.566244 V 31.50001 H 0 Z"
         transform="matrix(0.99999998,0,0,-0.99999998,0,31.500009)"
         id="path11" /></clipPath><clipPath
       clipPathUnits="userSpaceOnUse"
       id="clipPath12-2"><path
         d="M 0,0 H 27.566244 V 31.50001 H 0 Z"
         transform="matrix(0.99999998,0,0,-0.99999998,0,31.500009)"
         id="path12" /></clipPath><clipPath
       clipPathUnits="userSpaceOnUse"
       id="clipPath13-8"><path
         d="M 0,0 H 27.566244 V 31.50001 H 0 Z"
         transform="matrix(0.99999998,0,0,-0.99999998,0,31.500009)"
         id="path13" /></clipPath><clipPath
       clipPathUnits="userSpaceOnUse"
       id="clipPath14-9"><path
         d="M 0,0 H 27.566244 V 31.50001 H 0 Z"
         transform="matrix(0.99999998,0,0,-0.99999998,0,31.500009)"
         id="path14" /></clipPath><clipPath
       clipPathUnits="userSpaceOnUse"
       id="clipPath15-7"><path
         d="M 0,0 H 27.566244 V 31.50001 H 0 Z"
         transform="matrix(0.99999998,0,0,-0.99999998,0,31.500009)"
         id="path15" /></clipPath><clipPath
       clipPathUnits="userSpaceOnUse"
       id="clipPath16-3"><path
         d="M 0,0 H 27.566244 V 31.50001 H 0 Z"
         transform="matrix(0.99999998,0,0,-0.99999998,0,31.500009)"
         id="path16" /></clipPath><clipPath
       clipPathUnits="userSpaceOnUse"
       id="clipPath17-6"><path
         d="M 0,0 H 27.566244 V 31.50001 H 0 Z"
         transform="matrix(0.99999998,0,0,-0.99999998,0,31.500009)"
         id="path17" /></clipPath><clipPath
       clipPathUnits="userSpaceOnUse"
       id="clipPath18-1"><path
         d="M 0,0 H 27.566244 V 31.50001 H 0 Z"
         transform="matrix(0.99999998,0,0,-0.99999998,-9.7235758,18.096004)"
         id="path18" /></clipPath></defs><g
     inkscape:groupmode="layer"
     id="layer3"
     inkscape:label="Cover"
     style="display:inline"
     transform="translate(0,-6.2799988)"><rect
       style="font-variation-settings:normal;opacity:1;vector-effect:none;fill:#a02c2c;fill-opacity:1;fill-rule:evenodd;stroke:none;stroke-width:2.43108;stroke-linecap:butt;stroke-linejoin:miter;stroke-miterlimit:4;stroke-dasharray:none;stroke-dashoffset:0;stroke-opacity:1;-inkscape-stroke:none;stop-color:#000000;stop-opacity:1"
       id="rect1"
       width="212"
       height="299"
       x="-1"
       y="5.2799902" /><text
       xml:space="preserve"
       style="font-size:4.9389px;line-height:1.25;font-family:Arial;-inkscape-font-specification:Arial;letter-spacing:0.0529167px;display:inline;fill:#ffffff;stroke-width:0.264583"
       x="22.87627"
       y="117.56102"
       id="text2"><tspan
         sodipodi:role="line"
         id="tspan2"
         style="font-style:normal;font-variant:normal;font-weight:500;font-stretch:normal;font-family:'Source Sans 3';-inkscape-font-specification:'Source Sans 3 Medium';letter-spacing:0.0529167px;fill:#ffffff;stroke-width:0.264583"
         x="22.87627"
         y="117.56102">Johann Michael</tspan></text><text
       xml:space="preserve"
       style="font-style:normal;font-variant:normal;font-weight:600;font-stretch:normal;font-size:4.9389px;line-height:1.25;font-family:'Source Sans 3';-inkscape-font-specification:'Source Sans 3 Semi-Bold';letter-spacing:0.0529167px;display:inline;fill:#ffffff;stroke-width:0.264583"
       x="22.87627"
       y="123.82612"
       id="text2-3"><tspan
         sodipodi:role="line"
         id="tspan2-1"
         style="font-style:normal;font-variant:normal;font-weight:bold;font-stretch:normal;font-family:'Source Sans 3';-inkscape-font-specification:'Source Sans 3 Bold';letter-spacing:0.0529167px;fill:#ffffff;stroke-width:0.264583"
         x="22.87627"
         y="123.82612">Haydn</tspan></text><g
       id="g5"
       transform="matrix(1.75,0,0,1.75,-632.6027,205.40238)"><text
         xml:space="preserve"
         style="font-style:normal;font-variant:normal;font-weight:normal;font-stretch:normal;font-size:2.82222px;line-height:1.25;font-family:'Source Sans Pro';-inkscape-font-specification:'Source Sans Pro';fill:#ffffff;fill-opacity:1;stroke-width:0.264583"
         x="454.85413"
         y="33.039047"
         id="text10198"><tspan
           sodipodi:role="line"
           id="tspan10196"
           style="font-style:normal;font-variant:normal;font-weight:normal;font-stretch:normal;font-size:2.82222px;font-family:'Source Sans Pro';-inkscape-font-specification:'Source Sans Pro';fill:#ffffff;fill-opacity:1;stroke-width:0.264583"
           x="454.85413"
           y="33.039047">dition</tspan></text><text
         xml:space="preserve"
         style="font-style:normal;font-variant:normal;font-weight:normal;font-stretch:normal;font-size:2.82222px;line-height:1.25;font-family:'Source Sans Pro';-inkscape-font-specification:'Source Sans Pro';fill:#ffffff;stroke-width:0.264583"
         x="455.33859"
         y="29.864048"
         id="text10206"><tspan
           sodipodi:role="line"
           id="tspan10204"
           style="font-style:normal;font-variant:normal;font-weight:normal;font-stretch:normal;font-size:2.82222px;font-family:'Source Sans Pro';-inkscape-font-specification:'Source Sans Pro';fill:#ffffff;stroke-width:0.264583"
           x="455.33859"
           y="29.864048">kala</tspan></text><g
         id="g10222"
         transform="translate(253.04442,-43.584522)"><path
           id="path10208"
           style="fill:none;fill-rule:evenodd;stroke:#ffffff;stroke-width:0.529167;stroke-miterlimit:4;stroke-dasharray:none;stroke-opacity:1;stop-color:#000000"
           d="m 201.52667,74.276192 h -1.33142 c -0.58916,0 -1.06675,0.473824 -1.06675,1.058333 0,0.584501 0.47761,1.058334 1.06677,1.058334 h 1.3314"
           sodipodi:nodetypes="cscsc" /><path
           id="path10210"
           style="fill:none;fill-rule:evenodd;stroke:#ffffff;stroke-width:0.529167;stroke-miterlimit:4;stroke-dasharray:none;stroke-opacity:1;stop-color:#000000"
           d="m 200.72442,72.159525 h -0.52917 c -0.58916,0 -1.06675,0.473824 -1.06675,1.058333 0,0.584501 0.47761,1.058334 1.06677,1.058334 h 0.52915"
           sodipodi:nodetypes="cscsc" /><path
           id="path10212"
           style="fill:none;fill-rule:evenodd;stroke:#ffffff;stroke-width:0.529167;stroke-miterlimit:4;stroke-dasharray:none;stroke-opacity:1;stop-color:#000000"
           d="m 200.19527,67.92619 h 0.52917 c 0.58916,0 1.06675,0.473824 1.06675,1.058333 0,0.584501 -0.47761,1.058334 -1.06677,1.058334 h -0.52915"
           sodipodi:nodetypes="cscsc" /><path
           id="path10214"
           style="fill:none;fill-rule:evenodd;stroke:#ffffff;stroke-width:0.529167;stroke-miterlimit:4;stroke-dasharray:none;stroke-opacity:1;stop-color:#000000"
           d="m 199.39307,65.809523 h 1.33137 c 0.58916,0 1.06675,0.473824 1.06675,1.058333 0,0.584501 -0.47761,1.058334 -1.06677,1.058334 h -1.33135"
           sodipodi:nodetypes="cscsc" /><path
           id="path10216"
           style="fill:none;fill-rule:evenodd;stroke:#ffffff;stroke-width:0.529167;stroke-miterlimit:4;stroke-dasharray:none;stroke-opacity:1;stop-color:#000000"
           d="m 200.72444,68.984523 h -0.52915 c -0.58916,0 -1.06677,0.473833 -1.06677,1.058334 0,0.584509 0.47759,1.058333 1.06675,1.058333 h 0.52917 c 0.58916,0 1.06675,0.473824 1.06675,1.058333 0,0.584501 -0.47761,1.058334 -1.06677,1.058334 h -0.52915"
           sodipodi:nodetypes="cssccssc" /><rect
           style="font-variation-settings:normal;vector-effect:none;fill:#ffffff;fill-opacity:1;fill-rule:evenodd;stroke:none;stroke-width:0.264583;stroke-linecap:butt;stroke-linejoin:miter;stroke-miterlimit:4;stroke-dasharray:none;stroke-dashoffset:0;stroke-opacity:1;stop-color:#000000"
           id="rect10218"
           width="1.3313692"
           height="0.52916664"
           x="199.39307"
           y="66.603271" /><rect
           style="font-variation-settings:normal;vector-effect:none;fill:#ffffff;fill-opacity:1;fill-rule:evenodd;stroke:none;stroke-width:0.264583;stroke-linecap:butt;stroke-linejoin:miter;stroke-miterlimit:4;stroke-dasharray:none;stroke-dashoffset:0;stroke-opacity:1;stop-color:#000000"
           id="rect10220"
           width="1.3313692"
           height="0.52916664"
           x="200.19527"
           y="75.069939" /></g><text
         xml:space="preserve"
         style="font-style:normal;font-variant:normal;font-weight:normal;font-stretch:normal;font-size:2.82222px;line-height:1.25;font-family:'Source Sans Pro';-inkscape-font-specification:'Source Sans Pro';fill:#ffffff;stroke-width:0.264583"
         x="455.33859"
         y="26.689053"
         id="text10306"><tspan
           sodipodi:role="line"
           id="tspan10304"
           style="font-style:normal;font-variant:normal;font-weight:normal;font-stretch:normal;font-size:2.82222px;font-family:'Source Sans Pro';-inkscape-font-specification:'Source Sans Pro';fill:#ffffff;stroke-width:0.264583"
           x="455.33859"
           y="26.689053">sser</tspan></text></g><text
       xml:space="preserve"
       style="font-style:normal;font-variant:normal;font-weight:600;font-stretch:normal;font-size:4.9389px;line-height:1.25;font-family:'Source Sans 3';-inkscape-font-specification:'Source Sans 3 Semi-Bold';fill:#ffffff;stroke-width:0.264583"
       x="79.344864"
       y="58.929844"
       id="text1-6"><tspan
         sodipodi:role="line"
         id="tspan1-7"
         x="79.344864"
         y="58.929844"
         style="font-style:normal;font-variant:normal;font-weight:500;font-stretch:normal;font-family:'Source Sans 3';-inkscape-font-specification:'Source Sans 3 Medium';fill:#ffffff;stroke-width:0.264583">P R O P R I U M   M I S S Æ</tspan></text><text
       xml:space="preserve"
       style="font-size:4.9389px;line-height:1.25;font-family:Arial;-inkscape-font-specification:Arial;letter-spacing:0.0396875px;display:inline;fill:#ffffff;stroke-width:0.264583"
       x="22.87653"
       y="177.68388"
       id="text6"><tspan
         sodipodi:role="line"
         style="font-style:normal;font-variant:normal;font-weight:500;font-stretch:normal;font-family:'Source Sans 3';-inkscape-font-specification:'Source Sans 3 Medium';letter-spacing:0.0396875px;fill:#ffffff;stroke-width:0.264583"
         x="22.87653"
         y="177.68388"
         id="tspan19"><tspan
           style="font-style:normal;font-variant:normal;font-weight:bold;font-stretch:normal;font-family:'Source Sans 3';-inkscape-font-specification:'Source Sans 3 Bold'"
           id="tspan23">General preface</tspan></tspan></text><text
       xml:space="preserve"
       style="font-size:4.9389px;line-height:1.25;font-family:Arial;-inkscape-font-specification:Arial;letter-spacing:0.0396875px;display:inline;fill:#ffffff;stroke-width:0.264583"
       x="22.87653"
       y="158.84563"
       id="text72"><tspan
         sodipodi:role="line"
         style="font-style:normal;font-variant:normal;font-weight:500;font-stretch:normal;font-family:'Source Sans 3';-inkscape-font-specification:'Source Sans 3 Medium';letter-spacing:0.0396875px;fill:#ffffff;stroke-width:0.264583"
         x="22.87653"
         y="158.84563"
         id="tspan72">Proprium Missæ</tspan></text><path
       style="fill:#ffffff;stroke-width:1.61239"
       d="m 138.39613,58.30881 c -0.077,-0.124227 0.12217,-0.630271 0.32976,-0.837744 0.0376,-0.03764 0.19055,-0.313989 0.33998,-0.614323 0.14956,-0.300334 0.30766,-0.576782 0.35159,-0.614306 0.0438,-0.03764 0.19808,-0.283292 0.34258,-0.546068 0.14442,-0.262792 0.29446,-0.508525 0.33322,-0.546067 0.0387,-0.03764 0.24479,-0.280228 0.45788,-0.539308 l 0.38743,-0.471018 -0.25311,-0.09959 c -0.13911,-0.05476 -0.5472,-0.103865 -0.90665,-0.109169 l -0.65354,-0.01027 -0.57511,0.591446 c -0.98188,1.009795 -1.67771,1.167047 -0.98012,0.22152 0.18523,-0.251054 0.33676,-0.536656 0.33676,-0.634702 0,-0.234936 -1.24649,-0.242294 -1.48006,-0.0086 l -0.16957,0.169571 -0.0967,-0.150235 c -0.0532,-0.08248 -0.53274,-0.192432 -1.0657,-0.243971 l -0.96902,-0.0936 -0.46439,0.616326 c -0.46032,0.610918 -0.7114,0.751281 -0.87378,0.488522 -0.091,-0.147326 0.33411,-0.955878 0.50278,-0.955878 0.0566,0 0.0698,-0.0859 0.0294,-0.190926 -0.0404,-0.104891 -0.26873,-0.221486 -0.50766,-0.258874 -0.2389,-0.03747 -0.84963,-0.176861 -1.35716,-0.309985 l -0.92279,-0.242054 0.18702,-0.284045 c 0.10284,-0.156224 0.70242,-0.492441 1.33233,-0.74714 0.62993,-0.254682 1.37568,-0.558301 1.65724,-0.674708 l 0.51195,-0.211648 v -0.316932 c 0,-0.174294 0.13826,-0.532344 0.30716,-0.795616 l 0.30715,-0.4787 0.68636,-0.202835 c 0.37752,-0.111565 0.89411,-0.17864 1.14802,-0.149209 l 0.46164,0.05373 0.32597,-0.38743 c 0.203,-0.241216 0.4055,-0.356904 0.53672,-0.306546 0.12731,0.04877 0.34291,-0.06177 0.54513,-0.279784 0.18394,-0.198352 0.39338,-0.360651 0.46542,-0.360651 0.072,0 0.1309,-0.07734 0.1309,-0.171933 0,-0.09462 0.12286,-0.248658 0.27302,-0.342462 l 0.27303,-0.170426 v 0.155882 c 0,0.136718 -0.79839,0.968233 -1.57924,1.644841 -0.87761,0.760469 -1.74389,1.750826 -1.53155,1.750895 0.56631,1.54e-4 1.65499,-0.580734 2.23085,-1.190352 0.3338,-0.353362 0.60691,-0.570742 0.60691,-0.483064 0,0.08778 -0.15365,0.312979 -0.34129,0.500688 -0.42154,0.42155 -0.42515,0.490217 -0.0258,0.490217 0.40444,0 0.85896,-0.425229 1.1185,-1.046448 0.27087,-0.648255 0.26474,-0.661909 -0.17128,-0.382981 l -0.37542,0.240172 0.32876,-0.358632 c 0.18081,-0.197257 0.44191,-0.394549 0.5802,-0.438439 0.13826,-0.0438 0.25143,-0.16786 0.25143,-0.275386 0,-0.107458 0.12286,-0.195563 0.27303,-0.195563 0.307,0 0.3376,0.07272 0.13158,0.312911 -0.1829,0.213153 -1.22365,1.842235 -1.22365,1.915402 0,0.03063 0.24572,0.01198 0.54605,-0.04398 0.30033,-0.05493 0.54744,-0.06211 0.5491,-0.0154 0.002,0.0462 0.1232,-0.06947 0.26999,-0.257248 l 0.26697,-0.341299 0.003,0.238923 c 0.003,0.305348 0.10592,0.299941 0.65478,-0.03474 0.24583,-0.149893 0.4762,-0.272529 0.51193,-0.272529 0.17809,0 0.0262,0.385959 -0.28338,0.719728 -0.19159,0.206617 -0.31194,0.434554 -0.26745,0.506541 0.0445,0.07187 -0.0137,0.31392 -0.12953,0.537648 -0.11584,0.223728 -0.21036,0.440543 -0.21036,0.481815 0,0.133638 0.66382,0.0794 0.75085,-0.06143 0.0464,-0.07512 0.18146,-0.136546 0.30016,-0.136546 0.11875,0 0.29741,-0.107629 0.39715,-0.238923 0.22106,-0.06998 0.1784,-0.426306 0.18619,0.06827 0.003,0.204957 -0.0765,0.307162 -0.23831,0.307162 -0.13346,0 -0.36383,0.08487 -0.51193,0.188359 -0.14818,0.103694 -0.38709,0.211117 -0.53106,0.238906 -0.16427,0.03183 -0.27225,0.177647 -0.28991,0.391827 -0.0414,0.501904 0.0607,0.58609 0.42302,0.348725 0.43585,-0.285602 0.46996,-0.273059 0.46996,0.172737 0,0.428205 -0.50581,0.964297 -0.8256,0.875028 -0.109,-0.03046 -0.003,0.06964 0.2367,0.222376 0.49177,0.314023 0.7205,0.673066 0.62106,0.97494 -0.0886,0.269398 -1.0083,1.086163 -1.22668,1.0895 -0.22554,0.0034 -0.21785,-0.426683 0.012,-0.742794 l 0.18391,-0.251551 0.0972,0.157252 c 0.14254,0.230743 0.35407,0.191507 0.35407,-0.06571 0,-0.274343 -0.50771,-0.732715 -0.81158,-0.732715 -0.141,0 -0.36428,0.306203 -0.60343,0.82722 -0.20884,0.454967 -0.46734,0.860843 -0.57447,0.901961 -0.10711,0.04107 -0.19477,0.123884 -0.19477,0.183705 0,0.145787 -1.18336,2.059306 -1.41951,2.295457 -0.1244,0.124397 -0.21596,0.138429 -0.2754,0.04226 z m -2.03547,-5.150482 c 0.16324,-0.101811 0.33948,-0.324854 0.39167,-0.495811 0.16974,-0.556129 0.6043,-1.452512 0.7468,-1.540583 0.0765,-0.04723 0.10335,-0.143904 0.0597,-0.214522 -0.0457,-0.07409 -0.20441,-0.0409 -0.37388,0.07768 -0.16204,0.113447 -0.42735,0.206241 -0.5898,0.206241 -0.31738,0 -1.06707,0.700923 -1.65359,1.546024 l -0.36238,0.522163 0.1963,0.121831 c 0.24772,0.154 1.19401,0.0207 1.58523,-0.223163 z m 2.48929,-0.32879 c 0.34513,-0.375435 0.67917,-0.682596 0.74233,-0.682596 0.0631,0 -0.10575,0.307161 -0.37555,0.682596 l -0.49037,0.682563 h 0.25615 c 0.14099,0 0.34907,-0.138087 0.46265,-0.307162 0.11841,-0.176005 0.2566,-0.255469 0.32381,-0.186083 0.066,0.06827 0.0428,0.147669 -0.0534,0.182028 -0.0938,0.03354 -0.17059,0.117211 -0.17059,0.186083 0,0.14322 0.59042,0.164096 1.19865,0.04244 l 0.41368,-0.08265 0.13158,-0.51833 c 0.0773,-0.304886 0.0816,-0.594064 0.0103,-0.702223 l -0.12132,-0.18391 -0.16957,0.204768 c -0.24608,0.297101 -1.05384,0.84671 -1.05384,0.717042 0,-0.254785 0.44501,-0.717042 0.69031,-0.717042 0.14716,0 0.26528,-0.09308 0.26528,-0.209046 0,-0.114987 0.0869,-0.242396 0.19303,-0.283138 0.21161,-0.08128 0.84458,-1.519057 0.72248,-1.641162 -0.2521,-0.252098 -1.25457,0.718616 -1.8011,1.744 -0.12252,0.230059 -0.47956,0.360668 -0.47956,0.175474 0,-0.08504 0.6505,-0.976942 0.92149,-1.263416 0.32763,-0.346346 0.19192,-0.472216 -0.40598,-0.376599 -0.66034,0.105576 -0.9252,0.31067 -1.51271,1.171308 -0.23062,0.337876 -0.65351,0.894723 -0.93971,1.237442 -0.2862,0.342701 -0.52036,0.665211 -0.52036,0.716699 0,0.0515 0.25529,0.09377 0.56735,0.09377 h 0.56735 z m -4.35605,-0.0154 c 0,-0.07512 -0.0614,-0.09856 -0.13654,-0.05202 -0.0751,0.04637 -0.13655,0.145787 -0.13655,0.220888 0,0.07512 0.0614,0.09856 0.13655,0.05202 0.0751,-0.04637 0.13654,-0.145787 0.13654,-0.220905 z m -0.12183,-0.461692 c 0.24264,-0.337876 0.49219,-0.614306 0.55454,-0.614306 0.22847,0 0.10523,-0.257215 -0.16427,-0.342736 -0.29883,-0.0948 -2.77556,0.795804 -3.13529,1.127486 l -0.20476,0.188821 0.34129,-0.07666 c 0.1877,-0.04226 0.67914,0.0086 1.09212,0.11242 1.06965,0.269552 1.03213,0.279322 1.51634,-0.394924 z m 1.04693,-0.596425 c 0.0991,-0.102667 0.14647,-0.220528 0.10523,-0.261663 -0.0411,-0.04107 -0.0933,-0.04911 -0.11584,-0.01797 -0.0226,0.03131 -0.20684,0.261235 -0.40954,0.511024 -0.20271,0.249788 -0.36855,0.519168 -0.36855,0.598598 0,0.07957 0.13688,-0.03268 0.30423,-0.249361 0.16735,-0.216609 0.38528,-0.477947 0.48431,-0.580734 z m 2.81367,-0.256787 0.7779,-0.989741 h -0.3233 c -0.17781,0 -0.45306,0.138258 -0.61165,0.307162 -0.31418,0.334659 -0.84358,1.416544 -0.84839,1.73375 -0.003,0.233909 -0.0103,0.239966 1.00544,-1.051171 z m -2.1688,-0.853229 c 0.0464,-0.07512 0.0229,-0.136546 -0.052,-0.136546 -0.0751,0 -0.1745,0.06143 -0.22089,0.136546 -0.0465,0.07512 -0.0229,0.136547 0.052,0.136547 0.0751,0 0.17448,-0.06143 0.22089,-0.136547 z m -0.18349,-0.436573 0.67379,-0.43659 -0.34486,-0.180693 -0.34484,-0.180677 -0.48241,0.201569 c -0.50826,0.212349 -0.69638,0.487753 -0.56573,0.828196 0.11464,0.29876 0.3114,0.255896 1.06405,-0.231805 z m -13.74127,2.638638 c -0.30035,-0.136718 -0.69966,-0.410753 -0.88735,-0.608968 -0.18772,-0.198215 -0.40911,-0.361438 -0.49201,-0.362739 -0.0828,-0.0013 -0.31644,-0.155882 -0.51896,-0.343642 -0.20255,-0.187709 -0.41625,-0.341282 -0.47489,-0.341282 -0.21291,0 -1.01587,-1.140011 -1.26523,-1.796342 l -0.25561,-0.672672 0.13433,-0.251106 c 0.0739,-0.138258 0.22826,-0.287125 0.34295,-0.331134 0.14305,-0.05476 0.20857,-0.267379 0.20857,-0.675907 0,-0.327712 -0.0356,-0.631417 -0.079,-0.674931 -0.0435,-0.04346 -0.34561,0.100785 -0.67136,0.320628 -0.64141,0.432895 -1.44352,0.754139 -2.0655,0.827238 l -0.39217,0.04603 -0.0414,-0.290084 c -0.0228,-0.159647 0.095,-0.528135 0.26163,-0.819093 0.52952,-0.924462 1.07665,-2.096249 1.07665,-2.305877 0,-0.217037 -0.3455,-0.280126 -0.46604,-0.08521 -0.12764,0.206719 -1.62131,0.553048 -2.51083,0.582223 l -0.86088,0.02823 -0.45466,0.967069 c -0.49324,1.049203 -1.4939,2.400451 -1.77759,2.400451 -0.097,0 -0.2542,-0.187367 -0.34908,-0.416399 l -0.17248,-0.4164 0.18579,-0.347099 0.18576,-0.347116 0.51236,0.08196 0.51232,0.08196 0.28436,-0.649436 c 0.15639,-0.357194 0.33744,-0.77231 0.40235,-0.922477 0.065,-0.150065 0.154,-0.488044 0.19811,-0.750836 0.044,-0.262793 0.18076,-0.801725 0.30376,-1.197607 0.12302,-0.3959 0.18731,-0.756124 0.14287,-0.800527 -0.0443,-0.04432 -0.24581,0.04911 -0.44761,0.207866 -0.20179,0.15862 -0.42004,0.288596 -0.48499,0.288596 -0.21435,0 -0.12286,-0.279887 0.1208,-0.369344 0.35735,-0.131242 1.80883,-1.26535 1.80883,-1.413327 0,-0.07067 0.0614,-0.128504 0.13655,-0.128504 0.20987,0 0.1629,0.261714 -0.11875,0.661499 -0.14048,0.19931 -0.39415,0.745719 -0.56386,1.21429 l -0.30857,0.851877 0.17111,0.206104 c 0.42482,0.511913 3.49201,0.0068 3.83354,-0.631726 l 0.13604,-0.254305 h -0.20956 c -0.28702,0 -0.26278,-0.182576 0.0635,-0.477811 0.15006,-0.135862 0.27304,-0.307572 0.27304,-0.381527 0,-0.135349 0.40305,-0.493382 0.56429,-0.501475 0.0476,-0.0016 -0.0636,0.502485 -0.24725,1.121907 -0.18357,0.619457 -0.35526,1.218398 -0.38155,1.331023 -0.13381,0.573616 -0.6599,1.774714 -0.77732,1.774714 -0.11944,0 -0.43568,0.952234 -0.34595,1.041999 0.14099,0.140995 1.21526,-0.250661 1.83782,-0.670191 0.35577,-0.239744 0.9626,-0.751264 1.34852,-1.136692 l 0.70165,-0.700769 0.527,-0.109169 c 0.66521,-0.137744 0.87517,-0.102324 1.18464,0.198814 l 0.24811,0.241524 -0.21899,0.845152 c -0.12046,0.464824 -0.18242,0.904357 -0.13774,0.976737 0.0447,0.07238 0.25487,0.131585 0.46698,0.131585 h 0.38566 l 0.45949,-0.557036 c 0.90855,-1.101323 2.03097,-2.195528 2.19582,-2.140584 0.21235,0.07084 0.15297,1.058289 -0.10883,1.810254 -0.24635,0.70763 -0.24202,0.887366 0.0214,0.887366 0.2791,0 1.18662,-0.899515 1.47192,-1.458895 0.122,-0.239264 0.28784,-0.475791 0.36843,-0.525602 0.28331,-0.175098 0.29592,0.06673 0.0301,0.579314 -0.14767,0.284798 -0.49953,1.224284 -0.78202,2.087745 -0.67929,2.076503 -1.73342,4.157232 -2.43792,4.812177 -0.62435,0.580461 -0.97988,0.631247 -1.80122,0.257352 z m 1.52075,-0.373587 c 0.16067,-0.04312 0.40588,-0.303363 0.54489,-0.578339 0.13894,-0.274959 0.32167,-0.592079 0.40591,-0.704705 0.0842,-0.112762 0.26667,-0.51193 0.40543,-0.887365 0.13877,-0.375418 0.3311,-0.836152 0.42738,-1.023861 0.0963,-0.187709 0.17548,-0.447558 0.17594,-0.577432 4.6e-4,-0.129873 0.10061,-0.485665 0.22272,-0.790619 0.122,-0.304972 0.1875,-0.588828 0.14561,-0.630784 -0.0419,-0.04192 -0.32297,0.121831 -0.62447,0.36421 -0.91313,0.73381 -1.23044,0.258686 -0.75639,-1.132551 0.1184,-0.347356 0.19513,-0.758177 0.17059,-0.91293 l -0.0445,-0.281375 -0.35584,0.308428 c -0.1957,0.169571 -0.48695,0.56595 -0.64717,0.880709 -0.16034,0.314742 -0.50776,0.737301 -0.77221,0.939024 l -0.48084,0.36676 -0.63316,-0.07135 c -0.38249,-0.04312 -0.68205,-0.15862 -0.75662,-0.29195 l -0.12355,-0.22058 -0.57264,0.385428 c -0.31496,0.211973 -0.83374,0.460786 -1.15284,0.552895 -0.31911,0.09206 -0.58019,0.247957 -0.58019,0.346295 0,0.09839 0.19043,0.441706 0.42319,0.763002 l 0.42318,0.58419 -0.18188,0.11242 -0.18189,0.11242 0.40564,0.423398 c 0.23606,0.2464 0.50105,0.39845 0.63386,0.363731 0.13227,-0.03456 0.63748,0.252132 1.2009,0.681399 1.26728,0.965529 1.60293,1.100947 2.27891,0.919569 z m -2.94491,-5.463769 c 0.3226,-0.27898 0.84524,-1.400289 0.75828,-1.626891 -0.0987,-0.257026 -0.49184,-0.25256 -1.15579,0.01369 -0.73767,0.295149 -1.04833,1.055431 -0.69842,1.709247 l 0.14202,0.26529 0.36994,-0.08795 c 0.20349,-0.04842 0.46628,-0.171111 0.58401,-0.272922 z m -52.475244,3.420992 -0.248744,-0.34159 0.09514,-0.439071 c 0.06485,-0.299667 0.414773,-0.745446 1.101973,-1.40395 l 1.006904,-0.964845 v -0.639203 c 0,-0.351565 -0.02926,-0.63922 -0.06502,-0.63922 -0.03576,0 -0.266112,0.122687 -0.51193,0.272529 l -0.446994,0.272529 -1.160373,-0.0016 c -0.638211,-8.55e-4 -1.239153,-0.05168 -1.33542,-0.112762 l -0.175013,-0.111051 0.07768,-1.559165 0.07769,-1.559165 0.586056,-0.546068 c 0.322305,-0.300334 0.734717,-0.616599 0.916437,-0.702788 0.750528,-0.356031 1.301711,-0.571922 1.559011,-0.610644 0.328175,-0.04928 1.399964,0.638433 1.4854,0.953277 0.182455,0.672348 0.222085,1.286534 0.09308,1.44204 -0.198369,0.239025 -0.718889,2.780078 -0.607684,2.966658 0.07957,0.133637 0.567507,-0.02344 0.747944,-0.240857 0.08675,-0.104548 0.247837,-0.190019 0.358016,-0.190019 0.110195,0 -0.111394,0.246366 -0.49227,0.547454 -0.380911,0.301104 -0.7193,0.68506 -0.751931,0.853229 -0.263237,1.356158 -0.538504,2.392682 -0.689852,2.597536 -0.162384,0.219912 -0.883225,0.51347 -1.233866,0.502519 -0.07563,-0.0016 -0.24936,-0.158106 -0.38618,-0.345884 z m 1.546469,-1.26571 c 0.0835,-0.425228 0.174653,-0.84392 0.202596,-0.930434 0.0794,-0.246366 -0.08145,-0.325453 -0.272889,-0.13398 -0.09548,0.09548 -0.352608,0.324187 -0.571511,0.508388 -0.66362,0.558405 -0.716357,1.126443 -0.124911,1.346338 0.465525,0.173113 0.606093,0.02823 0.766801,-0.790278 z m -0.04363,-3.476072 c 0.227954,-0.142023 0.902663,-1.55754 0.81223,-1.703874 -0.04107,-0.06639 -0.261766,-0.09343 -0.490319,-0.05989 -0.577295,0.0847 -0.534705,-0.207182 0.06691,-0.458561 0.265359,-0.11088 0.550824,-0.351634 0.634394,-0.535048 l 0.151947,-0.333478 -0.180762,-0.217808 C 70.637535,42.261487 70.37472,42.06962 70.15296,41.954925 l -0.403224,-0.208517 -0.630596,0.174055 c -0.687679,0.189762 -1.332083,0.584002 -1.653858,1.011814 -0.113104,0.150065 -0.268781,0.786393 -0.346312,1.413824 l -0.140996,1.140781 0.140996,0.18261 c 0.228759,0.296382 2.156994,0.311439 2.623597,0.02053 z m 71.304065,3.044188 c 0,-0.07512 0.0614,-0.136547 0.13654,-0.136547 0.0751,0 0.13655,0.06143 0.13655,0.136547 0,0.07512 -0.0614,0.136546 -0.13655,0.136546 -0.0751,0 -0.13654,-0.06143 -0.13654,-0.136546 z m 0.88529,-0.276379 c -0.0476,-0.077 -0.0443,-0.331614 0.007,-0.565968 l 0.0936,-0.426135 -0.28825,0.07546 c -0.15845,0.04141 -0.28824,0.0219 -0.28824,-0.04346 0,-0.172976 0.52839,-0.428599 0.68539,-0.331562 0.0736,0.04551 0.13364,0.01762 0.13364,-0.06194 0,-0.07957 0.0614,-0.144589 0.13654,-0.144589 0.21247,0 0.16068,0.72404 -0.0761,1.061985 -0.11704,0.167005 -0.17479,0.36498 -0.12851,0.439927 0.0462,0.07495 0.0228,0.136204 -0.0522,0.136204 -0.0751,0 -0.17541,-0.06297 -0.22295,-0.139797 z m -4.02291,-0.235586 c 0.001,-0.0563 0.15349,-0.348109 0.33855,-0.648443 0.78671,-1.277397 1.08178,-2.115995 0.74455,-2.115995 -0.32797,0 -1.18255,0.541241 -2.64107,1.672783 -0.4391,0.340665 -0.907,0.551525 -1.00543,0.453102 -0.0352,-0.03525 0.012,-0.267002 0.10318,-0.514856 0.25586,-0.688877 0.3812,-1.437129 0.27067,-1.615974 -0.16735,-0.270852 -0.68214,-0.0016 -0.88068,0.460289 -0.10215,0.237605 -0.2793,0.647022 -0.39381,0.909798 -0.19141,0.439259 -0.65502,0.955622 -0.85799,0.955622 -0.12919,0 0.0493,-1.119838 0.19351,-1.214171 0.41231,-0.26974 0.57618,-1.199558 0.23451,-1.330663 -0.27448,-0.105234 -0.77335,0.237177 -1.69528,1.163847 -0.85989,0.864351 -1.38517,1.185766 -1.72482,1.055413 l -0.23146,-0.08881 0.069,-0.611911 c 0.0378,-0.336524 0.039,-0.611894 0.003,-0.611894 -0.0366,0 -0.3932,0.298589 -0.79251,0.663552 -1.00902,0.922204 -1.85368,1.064261 -2.0349,0.342274 -0.14989,-0.597657 0.0666,-1.253526 0.57793,-1.750211 0.48243,-0.468571 0.61052,-0.518296 1.80091,-0.699057 l 0.61177,-0.09291 0.41209,-0.450946 c 0.22665,-0.248026 0.55955,-0.823815 0.73978,-1.27957 0.18025,-0.45572 0.41062,-0.828606 0.51193,-0.828606 0.1013,0 0.18424,0.02344 0.18424,0.05202 0,0.08248 -0.67665,1.89841 -0.81992,2.200507 -0.22419,0.472746 -0.52666,1.48528 -0.57093,1.91121 l -0.0426,0.409554 0.34128,-0.03473 c 0.18771,-0.01899 0.46528,-0.172669 0.61685,-0.341282 0.44455,-0.494562 1.59767,-1.409716 2.10156,-1.667838 l 0.4659,-0.238665 0.24228,0.321192 0.24225,0.321159 0.45222,-0.181121 c 0.24871,-0.09959 0.54437,-0.191337 0.657,-0.203794 l 0.20476,-0.02276 -0.007,0.750835 c -0.003,0.412977 -0.0559,0.858346 -0.11704,0.989742 l -0.11105,0.238905 h 0.18879 c 0.10386,0 0.64254,-0.282367 1.19712,-0.627516 0.55459,-0.345131 1.27102,-0.706552 1.59204,-0.803179 l 0.58368,-0.175645 0.0708,0.184475 c 0.0388,0.101469 0.012,0.220802 -0.0599,0.265171 -0.0717,0.04432 -0.13518,0.215292 -0.14065,0.379781 -0.005,0.164438 -0.12765,0.483406 -0.27154,0.708657 -0.14373,0.225251 -0.30307,0.501698 -0.35384,0.614323 -0.29447,0.653389 -1.00783,1.456362 -1.00059,1.126254 z m -8.68146,-1.626549 c 0.26212,-0.124911 0.44732,-0.274616 0.41156,-0.332486 -0.0358,-0.05784 0.0931,-0.263255 0.28623,-0.456439 0.57983,-0.579845 0.12388,-0.80898 -0.89211,-0.448192 -0.72761,0.258429 -0.81909,0.351719 -0.81909,0.835365 0,0.702104 0.20944,0.785127 1.01341,0.401752 z m -24.49409,1.02831 c -0.26279,-0.149551 -0.57404,-0.3837 -0.69167,-0.520572 l -0.21383,-0.248847 -0.537,0.196641 c -1.47337,0.539514 -1.60715,0.527006 -1.83787,-0.172086 -0.15571,-0.471976 -0.31771,-0.581813 -0.47723,-0.323674 -0.21829,0.353173 -1.18048,0.813548 -1.70033,0.813548 -0.52992,0 -1.09482,-0.349974 -1.09482,-0.678285 0,-0.179119 -0.3882,-0.02344 -0.90026,0.361079 -0.23233,0.174465 -0.51696,0.317206 -0.63252,0.317206 -0.33336,0 -0.3747,-0.49588 -0.0881,-1.055482 0.34912,-0.681416 0.28999,-1.048638 -0.17758,-1.102692 l -0.36494,-0.04227 -0.34243,0.588246 c -0.18832,0.323537 -0.38582,0.77255 -0.43885,0.997801 -0.21074,0.895168 -0.74134,1.055996 -0.74134,0.224703 v -0.526132 l 0.32292,-0.348451 c 0.31225,-0.336884 0.37176,-0.495521 0.62695,-1.670884 0.14014,-0.64538 0.1049,-0.705868 -0.30163,-0.519682 -1.10564,0.50625 -1.48485,0.626113 -2.18405,0.690297 -0.50847,0.04671 -0.78495,0.133467 -0.78495,0.246503 0,0.09599 -0.0578,0.19493 -0.12868,0.219946 -0.0708,0.02498 -0.20795,0.343061 -0.30476,0.706724 l -0.17603,0.661208 0.26699,0.195203 c 0.26596,0.194485 1.07398,0.177802 1.647,-0.03405 0.28852,-0.106602 0.78625,-0.589906 0.99887,-0.969858 0.0734,-0.131242 0.17372,-0.198232 0.22288,-0.149209 0.11259,0.112591 -0.28583,0.751075 -0.76405,1.224916 -0.20035,0.198541 -0.71938,0.464208 -1.15339,0.590368 l -0.78911,0.229409 -0.49002,-0.187914 -0.49002,-0.187932 v -0.493245 c 0,-0.626352 -0.1025,-0.723851 -0.50008,-0.475552 -0.17547,0.109682 -0.62618,0.305108 -1.0016,0.434554 -0.37541,0.129531 -1.01058,0.392683 -1.41148,0.584978 l -0.72891,0.349631 -0.12286,-0.193082 c -0.0676,-0.10626 -0.0873,-0.285259 -0.0435,-0.397884 0.28055,-0.724109 0.49451,-1.516508 0.42754,-1.583481 -0.0986,-0.09856 -1.35849,0.619817 -1.50517,0.857986 -0.0595,0.09651 -0.24373,0.176621 -0.40953,0.178076 -0.16581,0.0015 -0.5165,0.02977 -0.77931,0.06297 -1.7233,0.217567 -2.18424,0.239949 -2.18424,0.106089 0,-0.07888 0.20706,-0.594167 0.46012,-1.145231 0.25309,-0.551046 0.54453,-1.20156 0.64766,-1.445581 0.10318,-0.244022 0.22679,-0.443674 0.27478,-0.443674 0.14288,0 0.23041,-0.502486 0.11893,-0.682803 l -0.10318,-0.167004 -0.51933,0.48984 c -0.28561,0.269415 -0.77263,0.608916 -1.08226,0.754446 -0.6958,0.327062 -0.82788,0.488643 -0.94927,1.161264 -0.15965,0.884576 -0.89104,1.85079 -1.404,1.854776 -0.34838,0.0034 -0.64963,-0.410547 -0.76752,-1.052898 l -0.0809,-0.440902 0.31806,-0.343215 c 0.17495,-0.188753 0.60647,-0.470761 0.95895,-0.626678 l 0.64086,-0.28348 -0.0686,-1.048398 c -0.0855,-1.307238 -0.22092,-2.072259 -0.36633,-2.072259 -0.30348,0 -1.00466,1.303953 -1.35809,2.52555 -0.28749,0.993762 -1.09763,2.549471 -1.53627,2.950111 -0.46371,0.423534 -0.76123,0.482362 -1.2333,0.243885 -0.37288,-0.188377 -1.04901,-0.923778 -1.04901,-1.14097 0,-0.309198 0.62577,-0.756123 1.05873,-0.756123 0.63127,0 0.67172,0.248419 0.0806,0.49535 l -0.51842,0.216609 0.3797,0.326617 c 0.21142,0.181857 0.55488,0.326583 0.77506,0.326583 h 0.39537 l 0.4161,-0.604792 c 0.22886,-0.332641 0.41611,-0.671355 0.41611,-0.752701 0,-0.08128 0.0546,-0.254563 0.12115,-0.384932 0.0666,-0.130387 0.26235,-0.667077 0.43501,-1.192679 0.43021,-1.309343 1.0921,-2.318198 1.6481,-2.512015 0.57886,-0.201792 0.68577,-0.07306 0.74493,0.897546 0.10095,1.657212 0.18386,1.955767 0.54283,1.955767 0.50776,0 1.95546,-1.239889 2.7104,-2.321363 0.15503,-0.222325 0.32825,-0.405277 0.38456,-0.406594 0.17232,-0.0034 0.1054,0.459895 -0.10678,0.740449 -0.11019,0.145787 -0.20044,0.428309 -0.20044,0.62791 0,0.199618 -0.27644,0.900233 -0.61432,1.556941 -0.33787,0.65669 -0.6143,1.298682 -0.6143,1.426639 0,0.127991 -0.0683,0.301002 -0.15195,0.384555 -0.0835,0.0835 -0.1102,0.21957 -0.059,0.302285 0.11893,0.192569 1.95255,0.0977 2.16215,-0.111906 0.083,-0.08299 0.27824,-0.151091 0.43365,-0.151091 0.15536,0 0.64993,-0.276721 1.09896,-0.614923 0.44901,-0.338201 0.90855,-0.598667 1.02117,-0.5788 0.34332,0.06057 0.31577,0.637902 -0.0573,1.201696 -0.35998,0.54398 -0.46474,1.084144 -0.21026,1.084144 0.078,0 0.38281,-0.122858 0.67714,-0.273025 0.29436,-0.150065 0.65097,-0.273025 0.7925,-0.273025 0.29985,0 1.75021,-0.915531 2.12961,-1.344301 0.14305,-0.1617 0.34271,-0.293901 0.4437,-0.293901 0.10095,0 0.18361,-0.110538 0.18361,-0.245715 0,-0.135178 0.0683,-0.313904 0.15161,-0.397235 l 0.1516,-0.151605 0.40261,0.140483 c 0.53563,0.186716 1.3396,0.04432 2.30424,-0.408289 l 0.79087,-0.371037 0.30075,-0.526373 c 0.67416,-1.179931 1.44563,-1.774132 1.78014,-1.371062 l 0.1581,0.190361 -0.36168,0.474166 c -0.19891,0.260808 -0.59026,0.644901 -0.86967,0.853554 -0.72435,0.540917 -0.7931,0.620261 -0.80191,0.925421 -0.005,0.150064 -0.0541,0.380534 -0.11037,0.51193 l -0.10249,0.238906 h 0.47124 c 0.30172,0 0.56237,0.100784 0.72453,0.279869 l 0.25328,0.27987 -0.17558,0.436847 c -0.31143,0.774894 -0.32653,0.908669 -0.11173,0.991076 0.37944,0.145615 1.20647,-0.51679 1.46235,-1.171256 0.13056,-0.334061 0.40105,-0.729465 0.60094,-0.878725 l 0.36348,-0.271365 0.23396,0.146471 c 0.13449,0.08419 0.25206,0.35906 0.27644,0.646219 l 0.0424,0.499679 -0.4281,0.237348 c -0.74245,0.411608 -0.83621,0.506763 -0.74177,0.752872 l 0.0904,0.235295 0.63383,-5.1e-5 0.63384,-6.9e-5 0.78498,-0.724827 0.78497,-0.724827 v -0.444102 c 0,-0.592216 0.7551,-2.824087 1.17228,-3.464933 0.34782,-0.534329 0.78429,-0.673374 0.9291,-0.295988 0.0457,0.118751 0.0828,0.574403 0.0828,1.012516 v 0.796608 l -0.49061,0.932813 c -0.26983,0.513043 -0.66384,1.117116 -0.87561,1.342367 -0.25963,0.276139 -0.39997,0.587408 -0.43089,0.955605 l -0.0459,0.54605 0.34128,-0.02755 c 0.18771,-0.01369 0.54396,-0.06862 0.79168,-0.118751 l 0.45036,-0.0912 0.0746,-0.373279 c 0.10643,-0.532344 0.73359,-1.212597 1.25596,-1.362405 0.60243,-0.172754 0.84024,-0.05424 0.84024,0.418316 v 0.395181 l -0.68258,0.49037 c -0.37542,0.269723 -0.68258,0.532088 -0.68258,0.583062 0,0.143391 0.89807,0.593054 1.32467,0.663364 0.8976,0.14784 1.28792,0.0385 2.16935,-0.608232 0.66964,-0.491295 0.86216,-0.354799 0.26016,0.184424 -1.17824,1.055413 -2.65089,1.40253 -3.61767,0.852749 z m -23.89469,-1.54652 c 0.23634,-0.284781 0.35627,-1.302259 0.15349,-1.302259 -0.19765,0 -1.24117,0.524524 -1.24117,0.623871 0,0.03987 0.0936,0.253519 0.20827,0.475039 0.22527,0.435615 0.61234,0.525123 0.87941,0.203349 z m 24.22863,-0.419753 0.2657,-0.200953 -0.14715,-0.147156 -0.14716,-0.147155 -0.28914,0.180573 c -0.31582,0.19724 -0.39098,0.527023 -0.11858,0.520093 0.0938,-0.0016 0.2902,-0.0948 0.43633,-0.205282 z m -5.54884,-0.227236 c 0.18444,-0.18444 0.2228,-0.65527 0.0534,-0.65527 -0.18251,0 -0.52844,0.325265 -0.61706,0.580204 l -0.083,0.238888 h 0.24144 c 0.13295,0 0.31515,-0.07375 0.40526,-0.163753 z m 3.70748,-1.684761 0.58903,-1.029473 v -0.523361 c 0,-0.287843 -0.0445,-0.595467 -0.0991,-0.683589 l -0.0991,-0.160331 -0.18627,0.154684 c -0.10232,0.08504 -0.2922,0.502657 -0.42173,0.928108 -0.29308,0.962774 -0.26413,0.87253 -0.35778,1.114806 -0.0435,0.112762 -0.0797,0.296929 -0.0806,0.409555 -8.6e-4,0.112762 -0.0438,0.342992 -0.0957,0.51193 -0.19409,0.633762 0.18241,0.271708 0.75115,-0.722329 z m -5.92411,-1.585362 0.40096,-0.430618 -0.25007,0.08932 c -0.13758,0.04911 -0.30646,0.08932 -0.37542,0.08932 -0.069,0 -0.12526,0.08915 -0.12526,0.197993 0,0.108826 -0.10745,0.260619 -0.2389,0.33714 l -0.23889,0.139113 0.21336,0.0051 c 0.11738,0.0016 0.39379,-0.189626 0.61432,-0.426444 z m 43.60817,4.951736 c 0,-0.150065 0.0614,-0.310995 0.13654,-0.3574 0.0751,-0.04637 0.13655,0.0385 0.13655,0.188667 0,0.150064 -0.0614,0.310995 -0.13655,0.3574 -0.0751,0.04637 -0.13654,-0.0385 -0.13654,-0.188667 z m -1.09212,-0.131414 c 0,-0.163753 0.40365,-0.496736 0.91782,-0.757133 l 0.44,-0.222838 -0.0792,0.206378 c -0.0435,0.113446 -0.17128,0.206377 -0.28384,0.206377 -0.11259,0 -0.32545,0.153487 -0.4731,0.341281 -0.26577,0.337876 -0.52168,0.448722 -0.52168,0.225935 z M 72.428902,46.618955 c -0.04552,-0.118751 0.02806,-0.338236 0.163582,-0.487941 l 0.246315,-0.272187 0.195922,0.195923 c 0.220729,0.220716 0.138259,0.426015 -0.255537,0.636807 l -0.267464,0.14322 z M 140.63705,45.93552 c 0,-0.03764 0.0306,-0.06827 0.0683,-0.06827 0.0376,0 0.0683,0.03063 0.0683,0.06827 0,0.03747 -0.0306,0.06827 -0.0683,0.06827 -0.0376,0 -0.0683,-0.03063 -0.0683,-0.06827 z M 72.925244,44.643425 c 0,-0.255281 0.361436,-0.550876 0.673596,-0.550876 0.21723,0 0.17648,0.195512 -0.10951,0.525175 -0.31793,0.366554 -0.564189,0.377779 -0.564189,0.02567 z m 14.704416,-1.505368 -0.0741,-0.283069 0.33394,-0.2188 c 0.42892,-0.281033 0.57875,-0.128847 0.32179,0.32689 -0.26051,0.462035 -0.48867,0.530685 -0.58169,0.174979 z"
       id="path7"
       sodipodi:nodetypes="ssssssscsscssscccscsssssscssscsscsscsssssscssssscssscsssssscssccsssscsssssssssssscsccccssssssssssscsssccsscsccsssssscsccssssssssssssssccssssssssscscssssssssssccssccsssssscccssscsssssccsscssccsssscssscccccsccssssssssscsscssscsssssscsscssscssssssssscccscssssscsscsssccscsssscccssscccscscscccccscssccsscccssssssssssscccscssssssssssccscscscssssssssccccsssssssccscssscssssssssccssssscsssssscssscccssccscsssccccsssssssssscscssssssssscssscssscssscssscsscccsssscccssscssssscssscscsscsssssssscsscsssssssscssssssssssssssssssccscsscsscscsccssssccscsscccccsscscsssccccssscsssssccssscssccccscscssscsssccsccssssscccccsssccccssssssscsscsscscssccssssscssccccsssc" /></g></svg>
